<svg width="13" height="13" viewBox="0 0 13 13" fill="none" xmlns="http://www.w3.org/2000/svg">
<path d="M11.2322 6.53172C11.2322 9.06256 9.1805 11.1142 6.64965 11.1142M11.2322 6.53172C11.2322 4.00087 9.1805 1.94922 6.64965 1.94922M11.2322 6.53172H2.06715M6.64965 11.1142C4.11881 11.1142 2.06715 9.06256 2.06715 6.53172M6.64965 11.1142C6.64965 11.1142 8.68632 9.58672 8.68632 6.53172C8.68632 3.47672 6.64965 1.94922 6.64965 1.94922M6.64965 11.1142C6.64965 11.1142 4.61299 9.58672 4.61299 6.53172C4.61299 3.47672 6.64965 1.94922 6.64965 1.94922M2.06715 6.53172C2.06715 4.00087 4.11881 1.94922 6.64965 1.94922" stroke="#7E74F1" stroke-width="0.76375"/>
</svg>
